<svg version="1.0" id="katman_1" xmlns="http://www.w3.org/2000/svg" xmlns:xlink="http://www.w3.org/1999/xlink" x="0px" y="0px"
	 viewBox="0 0 800 600" style="enable-background:new 0 0 800 600;" xml:space="preserve">
<style type="text/css">
	.st0{fill:#fff;}
</style>
<path class="st0" d="M142.9,218.4c-6.1,0-12.1,1.3-17.8,3.6c-5.6,2.4-10.7,5.8-15,10.2c-4.3,4.4-7.7,9.5-10,15.2
	c-2.3,5.7-3.5,11.8-3.4,17.9v15.5h37.5v-22.5c0-1.1,0.2-2.1,0.6-3.1c0.4-1,1-1.9,1.7-2.6c0.7-0.7,1.6-1.3,2.6-1.7
	c1-0.4,2-0.6,3.1-0.6h1.4c1,0,2.1,0.2,3.1,0.6c1,0.4,1.9,1,2.6,1.7c0.7,0.7,1.3,1.6,1.7,2.6c0.4,1,0.6,2,0.6,3.1v60.2
	c4.9,0,9.8-1,14.4-2.9c4.6-1.9,8.7-4.7,12.2-8.2c3.5-3.5,6.3-7.7,8.1-12.2c1.9-4.6,2.9-9.5,2.9-14.4v-15.5
	c0-12.4-4.8-24.4-13.5-33.2c-4.3-4.4-9.4-7.8-15-10.2C155,219.6,149,218.4,142.9,218.4z"/>
<path class="st0" d="M143.6,349h-1.4c-1,0-2.1-0.2-3.1-0.6c-1-0.4-1.8-1-2.6-1.7c-0.7-0.7-1.3-1.6-1.7-2.6s-0.6-2-0.6-3.1v-60.2
	c-4.9,0-9.8,1-14.4,2.9c-4.6,1.9-8.7,4.7-12.2,8.2c-3.5,3.5-6.3,7.7-8.1,12.2c-1.9,4.6-2.9,9.5-2.9,14.4v15.3
	c-0.1,6.1,1.1,12.2,3.4,17.9c2.3,5.7,5.7,10.9,10,15.2c4.3,4.4,9.4,7.8,15,10.2s11.7,3.6,17.8,3.6c6.1,0,12.2-1.2,17.8-3.6
	c5.6-2.4,10.8-5.8,15-10.2c4.3-4.4,7.7-9.5,10-15.2c2.3-5.7,3.4-11.8,3.4-17.9v-15.3h-37.5V341c0,1.1-0.2,2.1-0.6,3.1
	c-0.4,1-1,1.9-1.7,2.6c-0.7,0.7-1.6,1.3-2.6,1.7C145.7,348.8,144.7,349,143.6,349z M253.3,266h-13.2v67.1h38.6v-12.7h-25.5
	C253.3,320.5,253.3,266,253.3,266z M320.9,290.9c-1.9-2.3-4.2-4.2-6.9-5.4c-2.7-1.2-5.7-1.8-8.6-1.6c-3.1,0-6.1,0.6-9,1.9
	c-2.8,1.3-5.3,3.1-7.4,5.5c-4.4,4.9-6.8,11.3-6.8,18c0,6.6,2.4,13,6.8,18c2,2.3,4.6,4.2,7.4,5.5c2.8,1.3,5.9,1.9,9,1.9
	c6.7,0,11.9-2.3,15.5-7v5.7h12.3v-47.9h-12.3V290.9z M317.2,319c-1.2,1.2-2.7,2.2-4.4,2.9c-1.6,0.7-3.4,1-5.1,0.9
	c-1.7,0.1-3.5-0.3-5.1-0.9c-1.6-0.7-3.1-1.6-4.3-2.9c-2.4-2.7-3.7-6.1-3.7-9.7c0-3.6,1.3-7.1,3.7-9.7c1.2-1.2,2.7-2.2,4.3-2.9
	c1.6-0.7,3.4-1,5.1-0.9c1.8-0.1,3.5,0.3,5.1,0.9c1.6,0.7,3.1,1.6,4.4,2.9c2.4,2.7,3.8,6.1,3.8,9.7
	C320.9,312.8,319.6,316.3,317.2,319z M364.9,317.4l-12.4-32.2H339l19.5,46.4c-0.8,2.8-2.4,5.2-4.6,7.1c-2.3,1.6-5.1,2.3-7.9,2.1
	v11.5c5.4,0.5,10.9-1,15.3-4.2c4.1-3.1,7.4-8.1,9.9-14.9l17.4-48h-13.2L364.9,317.4z M415.3,283.9c-3.4-0.1-6.7,0.5-9.8,1.7
	c-3.1,1.2-5.9,3.1-8.3,5.5c-4.6,4.9-7.1,11.4-7.1,18.1c0,6.7,2.6,13.2,7.2,18.1c4.8,4.8,11.1,7.2,19,7.2c9.2,0,16.1-3.4,20.8-10.3
	l-9.9-5.8c-1.3,1.6-2.9,2.9-4.8,3.7c-1.9,0.8-3.9,1.2-5.9,1.1c-7.3,0-11.8-3-13.4-9h36c0.3-1.7,0.5-3.4,0.5-5.1
	c0.2-6.7-2.3-13.2-6.8-18c-2.2-2.4-4.9-4.3-7.9-5.5C421.7,284.4,418.5,283.8,415.3,283.9z M402.8,304.7c0.5-2.8,2.1-5.3,4.3-7.1
	c2.4-1.8,5.3-2.7,8.2-2.5c2.7,0,5.3,0.8,7.5,2.4c2.3,1.8,3.9,4.4,4.3,7.3C427.1,304.7,402.8,304.7,402.8,304.7z M460.3,293.5v-8.2
	H448v47.9h12.3v-22.9c0-4.6,1.5-7.9,4.4-9.9c3-2,6.5-2.8,10.1-2.3v-13.8c-3.1,0-6.1,0.8-8.8,2.3
	C463.3,288.1,461.3,290.6,460.3,293.5z M534.7,276.4V266H491v12.7h27.1l-27.8,43.9v10.6h45v-12.7h-28.3
	C506.9,320.5,534.7,276.4,534.7,276.4z M564.3,283.9c-3.4-0.1-6.7,0.5-9.8,1.7c-3.1,1.2-5.9,3.1-8.3,5.5c-4.6,4.9-7.1,11.4-7.1,18.1
	c0,6.7,2.6,13.2,7.2,18.1c4.8,4.8,11.1,7.2,19,7.2c9.2,0,16.1-3.4,20.8-10.3l-9.9-5.8c-1.3,1.6-2.9,2.9-4.8,3.7
	c-1.9,0.8-3.9,1.2-5.9,1.1c-7.3,0-11.8-3-13.4-9h36c0.3-1.7,0.5-3.4,0.5-5.1c0.2-6.7-2.3-13.2-6.8-18c-2.2-2.4-4.9-4.3-7.9-5.5
	C570.8,284.4,567.5,283.8,564.3,283.9L564.3,283.9z M551.8,304.7c0.5-2.8,2.1-5.3,4.3-7.1c2.4-1.8,5.3-2.7,8.2-2.5
	c2.7,0,5.3,0.8,7.5,2.4c2.3,1.8,3.9,4.4,4.3,7.3L551.8,304.7z M609.3,293.5v-8.2H597v47.9h12.3v-22.9c0-4.6,1.5-7.9,4.4-9.9
	c3-2,6.5-2.8,10.1-2.3v-13.8c-3.1,0-6.1,0.8-8.8,2.3C612.3,288.1,610.3,290.6,609.3,293.5z M651.9,283.9c-5.8,0.1-11.3,2.1-15.8,5.9
	c-4.4,3.7-7.4,8.9-8.5,14.6c-1.1,5.7-0.2,11.6,2.6,16.7s7.2,9.1,12.5,11.3c5.3,2.2,11.3,2.4,16.8,0.7c5.5-1.7,10.3-5.3,13.5-10.1
	c3.2-4.8,4.6-10.6,4-16.4c-0.6-5.8-3.1-11.2-7.2-15.3c-2.3-2.4-5.1-4.3-8.2-5.5C658.5,284.4,655.2,283.8,651.9,283.9z M661.1,318.7
	c-1.2,1.2-2.6,2.2-4.2,2.8c-1.6,0.6-3.3,1-5,0.9c-1.7,0-3.4-0.3-5-0.9c-1.6-0.6-3-1.6-4.2-2.8c-2.4-2.6-3.7-6-3.7-9.5
	c0-3.5,1.3-6.9,3.7-9.5c1.2-1.2,2.6-2.2,4.2-2.8c1.6-0.6,3.3-1,5-0.9c1.7,0,3.4,0.3,5,0.9c1.6,0.6,3,1.6,4.2,2.8
	c2.4,2.6,3.7,6,3.7,9.5C664.8,312.7,663.5,316.1,661.1,318.7z M702.9,318.4h-15v14.8h15V318.4z"/>
</svg>
