<svg xmlns="http://www.w3.org/2000/svg" width="48" height="50" viewBox="0 0 48 50" fill="none">
  <g filter="url(#filter0_d_933_32110)">
    <path d="M21.7578 7.52251C22.9511 6.17996 25.0489 6.17997 26.2422 7.52251L27.1152 8.50461C27.8364 9.31594 28.9396 9.67439 29.9999 9.44191L31.2834 9.1605C33.038 8.77581 34.7351 10.0088 34.9114 11.7964L35.0404 13.104C35.147 14.1843 35.8288 15.1228 36.8233 15.5579L38.0271 16.0847C39.6727 16.8048 40.3209 18.7998 39.4129 20.3497L38.7486 21.4834C38.1998 22.42 38.1998 23.58 38.7486 24.5166L39.4128 25.6503C40.3209 27.2002 39.6727 29.1952 38.0271 29.9153L36.8233 30.4421C35.8288 30.8772 35.147 31.8157 35.0404 32.8959L34.9114 34.2036C34.7351 35.9912 33.038 37.2242 31.2834 36.8395L29.9999 36.5581C28.9396 36.3256 27.8364 36.6841 27.1152 37.4954L26.2422 38.4775C25.0489 39.82 22.9511 39.82 21.7578 38.4775L20.8848 37.4954C20.1636 36.6841 19.0604 36.3256 18.0001 36.5581L16.7166 36.8395C14.962 37.2242 13.2649 35.9912 13.0886 34.2036L12.9596 32.8959C12.853 31.8157 12.1712 30.8772 11.1767 30.4421L9.97293 29.9153C8.32731 29.1952 7.67908 27.2002 8.58715 25.6503L9.25141 24.5166C9.80018 23.58 9.80018 22.42 9.25141 21.4834L8.58715 20.3497C7.67908 18.7998 8.32731 16.8048 9.97292 16.0847L11.1767 15.5579C12.1712 15.1228 12.853 14.1843 12.9596 13.1041L13.0886 11.7964C13.2649 10.0088 14.962 8.7758 16.7166 9.1605L18.0001 9.44191C19.0604 9.67439 20.1636 9.31594 20.8848 8.50461L21.7578 7.52251Z" fill="#27A7CC"/>
    <path d="M22.3183 8.02078C23.2134 7.01387 24.7866 7.01387 25.6817 8.02079L26.5546 9.00288C27.4561 10.017 28.8351 10.4651 30.1605 10.1745L31.4441 9.8931C32.76 9.60458 34.0328 10.5293 34.1651 11.87L34.2941 13.1777C34.4272 14.528 35.2795 15.7011 36.5226 16.245L37.7264 16.7718C38.9606 17.3119 39.4468 18.8082 38.7657 19.9705L38.1015 21.1043C37.4155 22.275 37.4155 23.725 38.1015 24.8957L38.7657 26.0295C39.4468 27.1918 38.9606 28.6881 37.7264 29.2282L36.5226 29.755C35.2795 30.2989 34.4272 31.472 34.2941 32.8223L34.1651 34.13C34.0328 35.4707 32.76 36.3954 31.4441 36.1069L30.1606 35.8255C28.8351 35.5349 27.4561 35.983 26.5546 36.9971L25.6817 37.9792C24.7866 38.9861 23.2134 38.9861 22.3183 37.9792L21.4454 36.9971C20.5439 35.983 19.1649 35.5349 17.8395 35.8255L16.5559 36.1069C15.24 36.3954 13.9672 35.4707 13.8349 34.13L13.7059 32.8223C13.5727 31.472 12.7205 30.2989 11.4774 29.755L10.2736 29.2282C9.03938 28.6881 8.55321 27.1918 9.23426 26.0295L9.89852 24.8957C10.5845 23.725 10.5845 22.275 9.89852 21.1043L9.23426 19.9705C8.55321 18.8082 9.03938 17.3119 10.2736 16.7718L11.4774 16.245C12.7205 15.7011 13.5728 14.528 13.7059 13.1777L13.8349 11.87C13.9672 10.5293 15.24 9.60458 16.5559 9.8931L17.8394 10.1745C19.1649 10.4651 20.5439 10.017 21.4454 9.00288L22.3183 8.02078Z" stroke="#2C3034" stroke-width="1.5"/>
  </g>
  <path d="M23.6048 27.8003C23.6048 27.8009 23.6048 27.8012 23.6048 27.8003L23.6049 27.7993C23.6054 27.7913 23.6081 27.7489 23.6222 27.663C23.638 27.5668 23.6639 27.4407 23.7023 27.2861C23.7789 26.9768 23.8977 26.5831 24.0599 26.1332C24.3849 25.2318 24.8683 24.1484 25.4941 23.112C26.8028 20.9447 28.4692 19.4 30.3153 19.4C30.9693 19.4 31.4995 18.8627 31.4995 18.2C31.4995 17.5372 30.9693 17 30.3153 17C27.1375 17 24.8565 19.5695 23.4738 21.8593C23.0346 22.5868 22.6592 23.3287 22.3491 24.0299C21.2804 22.6559 19.6141 21.8 17.6837 21.8C17.0297 21.8 16.4995 22.3372 16.4995 23C16.4995 23.6627 17.0297 24.2 17.6837 24.2C19.7365 24.2 21.2364 25.7198 21.2364 27.8C21.2364 28.4627 21.7665 29 22.4206 29C23.0746 29 23.6048 28.4631 23.6048 27.8003Z" fill="white"/>
  <defs>
    <filter id="filter0_d_933_32110" x="0.174805" y="0.515594" width="47.6504" height="48.9688" filterUnits="userSpaceOnUse" color-interpolation-filters="sRGB">
      <feFlood flood-opacity="0" result="BackgroundImageFix"/>
      <feColorMatrix in="SourceAlpha" type="matrix" values="0 0 0 0 0 0 0 0 0 0 0 0 0 0 0 0 0 0 127 0" result="hardAlpha"/>
      <feOffset dy="2"/>
      <feGaussianBlur stdDeviation="4"/>
      <feComposite in2="hardAlpha" operator="out"/>
      <feColorMatrix type="matrix" values="0 0 0 0 0.172549 0 0 0 0 0.188235 0 0 0 0 0.203922 0 0 0 0.12 0"/>
      <feBlend mode="normal" in2="BackgroundImageFix" result="effect1_dropShadow_933_32110"/>
      <feBlend mode="normal" in="SourceGraphic" in2="effect1_dropShadow_933_32110" result="shape"/>
    </filter>
  </defs>
</svg>